<svg id="Layer_9" data-name="Layer 9" xmlns="http://www.w3.org/2000/svg" viewBox="0 0 272.12 259.86"><defs><style>.cls-1{fill:#fff;}</style></defs><title>Logo_Lab1</title><polygon class="cls-1" points="231.1 82.68 230.87 126.75 270.68 104.82 231.1 82.68"/><polygon class="cls-1" points="48.4 23.7 88.89 0 223.15 77.68 182.94 101.08 48.4 23.7"/><polygon class="cls-1" points="48.4 77.04 89.81 54.28 132.62 77.04 90.26 101.76 48.4 77.04"/><polygon class="cls-1" points="179.76 153.55 179.99 105.85 138.78 82.45 138.65 129.7 179.76 153.55"/><polygon class="cls-1" points="95.71 158.09 137.06 134.07 177.72 157.87 136.2 181.38 95.71 158.09"/><polygon class="cls-1" points="92.9 105.68 134.81 82.45 134.81 129.48 92.9 152.99 92.9 105.68"/><polygon class="cls-1" points="142.96 24.3 182.65 47.47 222.8 23.96 182.94 0 142.96 24.3"/><polygon class="cls-1" points="188.17 50.87 225.95 28.55 227.01 73.36 188.17 50.87"/><polygon class="cls-1" points="185.9 105.39 227.01 82.22 227.47 129.02 185.44 153.32 185.9 105.39"/><polygon class="cls-1" points="92.99 162.86 133.88 186.26 133.88 232.86 92.99 210.11 92.99 162.86"/><polygon class="cls-1" points="138.78 185.11 272.12 109.98 272.12 157.72 138.78 232.85 138.78 185.11"/><polygon class="cls-1" points="143.08 237.87 179.76 216.25 179.76 259.86 143.08 237.87"/><polygon class="cls-1" points="185.22 214.2 185.67 259.63 226.78 236.24 226.78 189.44 185.22 214.2"/><polygon class="cls-1" points="93.22 216.25 92.9 259.66 130.01 238.05 93.22 216.25"/><polygon class="cls-1" points="46.45 82.45 86.88 105.68 86.88 259.66 46.45 236.72 46.45 82.45"/><polygon class="cls-1" points="46.45 72.42 84.3 50.91 46.45 29.41 46.45 72.42"/><polygon class="cls-1" points="2.87 103.81 41.29 82.45 41.2 125.84 2.87 103.81"/><polygon class="cls-1" points="0.08 109.03 41.29 133.11 41.29 179.37 0 157.72 0.08 109.03"/></svg>