<svg id="Logo_Web2" xmlns="http://www.w3.org/2000/svg" viewBox="0 0 541.67 387.04"><defs><style>.cls-1{fill:#fed402;}.cls-2,.cls-3{fill:none;stroke:#fff;stroke-width:4px;}.cls-2{stroke-linecap:round;stroke-linejoin:round;}.cls-3{stroke-miterlimit:10;}</style></defs><title>Logo_Lab2</title><polygon class="cls-1" points="540.29 112.09 484.99 132.27 429.68 152.46 374.38 172.64 319.07 192.83 263.77 213.01 208.46 233.2 153.16 253.38 97.85 273.57 42.55 293.75 0 309.28 32.81 303.49 75.47 295.95 118.12 288.42 160.78 280.88 203.43 273.35 246.09 265.81 288.74 258.28 331.4 250.74 374.05 243.21 416.71 235.67 459.36 228.13 502.02 220.6 541.67 213.59 541.67 180.95 541.67 145.83 541.67 111.58 540.29 112.09"/><polygon class="cls-2" points="272.2 160.69 341.41 279.64 272.2 160.69 201.07 279.71 400.8 279.71 240.74 3.37 50.59 330.32 82.05 382.31 242.11 108.7 272.2 160.69"/><polygon class="cls-2" points="169.6 333.06 201.07 279.71 272.2 160.69 242.11 108.7 82.05 382.31 460.99 385.04 491.09 333.06 169.6 333.06"/><polygon class="cls-2" points="302.3 2 286.91 2.34 257.3 31.95 264.32 44.08 303.79 4.61 302.3 2"/><polygon class="cls-3" points="267.32 2.78 250.27 19.83 257.3 31.95 286.91 2.34 267.32 2.78"/><polygon class="cls-3" points="303.79 4.61 264.32 44.08 271.85 57.08 311.24 17.68 303.79 4.61"/><polygon class="cls-3" points="246.34 3.24 242.75 6.83 250.27 19.83 267.32 2.78 246.34 3.24"/><polygon class="cls-3" points="397.79 274.51 435.94 236.35 428.99 224.16 390.76 262.38 397.79 274.51"/><polygon class="cls-2" points="240.74 3.37 242.75 6.83 246.34 3.24 240.74 3.37"/><polygon class="cls-3" points="311.24 17.68 271.85 57.08 278.37 68.34 317.7 29.01 311.24 17.68"/><polygon class="cls-3" points="324.66 41.2 285.4 80.47 291.92 91.73 331.12 52.53 324.66 41.2"/><polygon class="cls-3" points="359.43 102.19 320.52 141.1 327.54 153.23 366.39 114.39 359.43 102.19"/><polygon class="cls-3" points="352.48 89.99 313.49 128.98 320.52 141.1 359.43 102.19 352.48 89.99"/><polygon class="cls-3" points="345.03 76.92 305.97 115.98 313.49 128.98 352.48 89.99 345.03 76.92"/><polygon class="cls-3" points="390.76 262.38 428.99 224.16 422.03 211.96 383.74 250.25 390.76 262.38"/><polygon class="cls-3" points="317.7 29.01 278.37 68.34 285.4 80.47 324.66 41.2 317.7 29.01"/><polygon class="cls-3" points="331.12 52.53 291.92 91.73 299.44 104.72 338.57 65.6 331.12 52.53"/><polygon class="cls-3" points="338.57 65.6 299.44 104.72 305.97 115.98 345.03 76.92 338.57 65.6"/><polygon class="cls-3" points="442.9 248.55 358.39 333.06 377.54 333.06 449.85 260.75 442.9 248.55"/><polygon class="cls-3" points="383.74 250.25 422.03 211.96 415.08 199.76 376.71 238.13 383.74 250.25"/><polygon class="cls-3" points="354.29 279.71 300.93 333.06 320.08 333.06 373.44 279.71 354.29 279.71"/><polygon class="cls-3" points="435.94 236.35 397.79 274.51 400.8 279.71 392.59 279.71 339.24 333.06 358.39 333.06 442.9 248.55 435.94 236.35"/><polygon class="cls-3" points="373.44 279.71 320.08 333.06 339.24 333.06 392.59 279.71 373.44 279.71"/><polygon class="cls-3" points="335.13 279.71 281.78 333.06 300.93 333.06 354.29 279.71 335.13 279.71"/><polygon class="cls-3" points="315.98 279.71 262.63 333.06 281.78 333.06 335.13 279.71 315.98 279.71"/><polygon class="cls-3" points="449.85 260.75 377.54 333.06 396.69 333.06 456.81 272.95 449.85 260.75"/><polygon class="cls-3" points="456.81 272.95 396.69 333.06 415.85 333.06 463.76 285.14 456.81 272.95"/><polygon class="cls-2" points="484.63 321.73 473.3 333.06 491.09 333.06 484.63 321.73"/><polygon class="cls-3" points="477.67 309.54 454.15 333.06 473.3 333.06 484.63 321.73 477.67 309.54"/><polygon class="cls-3" points="470.72 297.34 435 333.06 454.15 333.06 477.67 309.54 470.72 297.34"/><polygon class="cls-3" points="463.76 285.14 415.85 333.06 435 333.06 470.72 297.34 463.76 285.14"/><polygon class="cls-3" points="296.83 279.71 243.48 333.06 262.63 333.06 315.98 279.71 296.83 279.71"/><polygon class="cls-3" points="277.68 279.71 224.32 333.06 243.48 333.06 296.83 279.71 277.68 279.71"/><polygon class="cls-3" points="348.62 189.62 387.25 150.98 380.8 139.65 342.09 178.35 348.62 189.62"/><polygon class="cls-3" points="362.67 213.87 401.17 175.37 394.21 163.17 355.64 201.74 362.67 213.87"/><polygon class="cls-3" points="355.64 201.74 394.21 163.17 387.25 150.98 348.62 189.62 355.64 201.74"/><polygon class="cls-3" points="376.71 238.13 415.08 199.76 408.12 187.57 369.69 226 376.71 238.13"/><polygon class="cls-3" points="369.69 226 408.12 187.57 401.17 175.37 362.67 213.87 369.69 226"/><polygon class="cls-3" points="342.09 178.35 380.8 139.65 373.34 126.58 334.57 165.36 342.09 178.35"/><polygon class="cls-3" points="258.52 279.71 205.17 333.06 224.32 333.06 277.68 279.71 258.52 279.71"/><polygon class="cls-3" points="240.74 279.71 187.39 333.06 205.17 333.06 258.52 279.71 240.74 279.71"/><polygon class="cls-2" points="220.22 279.71 173.54 326.39 169.6 333.06 187.39 333.06 240.74 279.71 220.22 279.71"/><polygon class="cls-2" points="201.07 279.71 173.54 326.39 220.22 279.71 201.07 279.71"/><polygon class="cls-3" points="373.34 126.58 366.39 114.39 327.54 153.23 334.57 165.36 373.34 126.58"/></svg>