<svg id="Logo_Web" xmlns="http://www.w3.org/2000/svg" viewBox="0 0 541.67 385.04"><defs><style>.cls-1{fill:#fff;}.cls-2{fill:#fed402;}.cls-3,.cls-4{fill:none;stroke:#64666a;stroke-width:2px;}.cls-3{stroke-linecap:round;stroke-linejoin:round;}.cls-4{stroke-miterlimit:10;}</style></defs><title>Logo_Lab</title><path class="cls-1" d="M1001.46,314.48l-61.56,1.37-190.15,327,31.46,52,378.94,2.74,30.1-52ZM900.23,592.18l71.14-119,69.2,119H900.23Z" transform="translate(-698.66 -313.01)"/><polygon class="cls-2" points="540.29 111.09 484.99 131.27 429.68 151.46 374.38 171.64 319.07 191.83 263.77 212.01 208.46 232.2 153.16 252.38 97.85 272.57 42.55 292.75 0 308.28 32.81 302.49 75.47 294.95 118.12 287.42 160.78 279.88 203.43 272.35 246.09 264.81 288.74 257.28 331.4 249.74 374.05 242.21 416.71 234.67 459.36 227.13 502.02 219.6 541.67 212.59 541.67 179.95 541.67 144.83 541.67 110.58 540.29 111.09"/><polygon class="cls-3" points="272.2 159.69 341.41 278.64 272.2 159.69 201.07 278.71 400.8 278.71 240.74 2.37 50.59 329.32 82.05 381.31 242.11 107.7 272.2 159.69"/><polygon class="cls-3" points="169.6 332.06 201.07 278.71 272.2 159.69 242.11 107.7 82.05 381.31 460.99 384.04 491.09 332.06 169.6 332.06"/><polygon class="cls-3" points="302.3 1 286.91 1.34 257.3 30.95 264.32 43.08 303.79 3.61 302.3 1"/><polygon class="cls-4" points="267.32 1.78 250.27 18.83 257.3 30.95 286.91 1.34 267.32 1.78"/><polygon class="cls-4" points="303.79 3.61 264.32 43.08 271.85 56.08 311.24 16.68 303.79 3.61"/><polygon class="cls-4" points="246.34 2.24 242.75 5.83 250.27 18.83 267.32 1.78 246.34 2.24"/><polygon class="cls-4" points="397.79 273.51 435.94 235.35 428.99 223.16 390.76 261.38 397.79 273.51"/><polygon class="cls-3" points="240.74 2.37 242.75 5.83 246.34 2.24 240.74 2.37"/><polygon class="cls-4" points="311.24 16.68 271.85 56.08 278.37 67.34 317.7 28.01 311.24 16.68"/><polygon class="cls-4" points="324.66 40.2 285.4 79.47 291.92 90.73 331.12 51.53 324.66 40.2"/><polygon class="cls-4" points="359.43 101.19 320.52 140.1 327.54 152.23 366.39 113.39 359.43 101.19"/><polygon class="cls-4" points="352.48 88.99 313.49 127.98 320.52 140.1 359.43 101.19 352.48 88.99"/><polygon class="cls-4" points="345.03 75.92 305.97 114.98 313.49 127.98 352.48 88.99 345.03 75.92"/><polygon class="cls-4" points="390.76 261.38 428.99 223.16 422.03 210.96 383.74 249.25 390.76 261.38"/><polygon class="cls-4" points="317.7 28.01 278.37 67.34 285.4 79.47 324.66 40.2 317.7 28.01"/><polygon class="cls-4" points="331.12 51.53 291.92 90.73 299.44 103.72 338.57 64.6 331.12 51.53"/><polygon class="cls-4" points="338.57 64.6 299.44 103.72 305.97 114.98 345.03 75.92 338.57 64.6"/><polygon class="cls-4" points="442.9 247.55 358.39 332.06 377.54 332.06 449.85 259.75 442.9 247.55"/><polygon class="cls-4" points="383.74 249.25 422.03 210.96 415.08 198.76 376.71 237.13 383.74 249.25"/><polygon class="cls-4" points="354.29 278.71 300.93 332.06 320.08 332.06 373.44 278.71 354.29 278.71"/><polygon class="cls-4" points="435.94 235.35 397.79 273.51 400.8 278.71 392.59 278.71 339.24 332.06 358.39 332.06 442.9 247.55 435.94 235.35"/><polygon class="cls-4" points="373.44 278.71 320.08 332.06 339.24 332.06 392.59 278.71 373.44 278.71"/><polygon class="cls-4" points="335.13 278.71 281.78 332.06 300.93 332.06 354.29 278.71 335.13 278.71"/><polygon class="cls-4" points="315.98 278.71 262.63 332.06 281.78 332.06 335.13 278.71 315.98 278.71"/><polygon class="cls-4" points="449.85 259.75 377.54 332.06 396.69 332.06 456.81 271.95 449.85 259.75"/><polygon class="cls-4" points="456.81 271.95 396.69 332.06 415.85 332.06 463.76 284.14 456.81 271.95"/><polygon class="cls-3" points="484.63 320.73 473.3 332.06 491.09 332.06 484.63 320.73"/><polygon class="cls-4" points="477.67 308.54 454.15 332.06 473.3 332.06 484.63 320.73 477.67 308.54"/><polygon class="cls-4" points="470.72 296.34 435 332.06 454.15 332.06 477.67 308.54 470.72 296.34"/><polygon class="cls-4" points="463.76 284.14 415.85 332.06 435 332.06 470.72 296.34 463.76 284.14"/><polygon class="cls-4" points="296.83 278.71 243.48 332.06 262.63 332.06 315.98 278.71 296.83 278.71"/><polygon class="cls-4" points="277.68 278.71 224.32 332.06 243.48 332.06 296.83 278.71 277.68 278.71"/><polygon class="cls-4" points="348.62 188.62 387.25 149.98 380.8 138.65 342.09 177.35 348.62 188.62"/><polygon class="cls-4" points="362.67 212.87 401.17 174.37 394.21 162.17 355.64 200.74 362.67 212.87"/><polygon class="cls-4" points="355.64 200.74 394.21 162.17 387.25 149.98 348.62 188.62 355.64 200.74"/><polygon class="cls-4" points="376.71 237.13 415.08 198.76 408.12 186.57 369.69 225 376.71 237.13"/><polygon class="cls-4" points="369.69 225 408.12 186.57 401.17 174.37 362.67 212.87 369.69 225"/><polygon class="cls-4" points="342.09 177.35 380.8 138.65 373.34 125.58 334.57 164.36 342.09 177.35"/><polygon class="cls-4" points="258.52 278.71 205.17 332.06 224.32 332.06 277.68 278.71 258.52 278.71"/><polygon class="cls-4" points="240.74 278.71 187.39 332.06 205.17 332.06 258.52 278.71 240.74 278.71"/><polygon class="cls-4" points="220.22 278.71 173.54 325.39 169.6 332.06 187.39 332.06 240.74 278.71 220.22 278.71"/><polygon class="cls-4" points="201.07 278.71 173.54 325.39 220.22 278.71 201.07 278.71"/><polygon class="cls-4" points="373.34 125.58 366.39 113.39 327.54 152.23 334.57 164.36 373.34 125.58"/></svg>